<?xml version="1.0" standalone="no"?>
<!DOCTYPE svg PUBLIC "-//W3C//DTD SVG 20010904//EN"
 "http://www.w3.org/TR/2001/REC-SVG-20010904/DTD/svg10.dtd">
<svg version="1.0" xmlns="http://www.w3.org/2000/svg"
 width="26.000000pt" height="26.000000pt" viewBox="0 0 26.000000 26.000000"
 preserveAspectRatio="xMidYMid meet">

<g transform="translate(0.000000,26.000000) scale(0.100000,-0.100000)"
fill="#000000" stroke="none">
<path d="M145 208 c-11 -29 -55 -162 -55 -165 0 -2 4 -3 9 -3 5 0 23 41 39 90
17 50 26 90 21 90 -5 0 -12 -6 -14 -12z"/>
<path d="M21 159 l-23 -30 23 -27 c13 -15 25 -29 27 -31 1 -2 5 -2 8 1 3 4 -2
18 -11 32 -16 24 -16 28 -1 51 30 46 13 49 -23 4z"/>
<path d="M200 185 c0 -3 7 -17 16 -30 15 -23 15 -27 -1 -51 -9 -14 -14 -28
-11 -31 5 -5 55 47 55 57 0 3 -11 17 -24 33 -23 26 -35 33 -35 22z"/>
</g>
</svg>
